<?xml version="1.0" encoding="UTF-8"?><svg id="uuid-175158c8-3456-463a-a8d8-9fbb5180338d" xmlns="http://www.w3.org/2000/svg" viewBox="0 0 920.4 904"><path d="M460.2,0C206,0,0,202.4,0,452s206.1,452,460.2,452,460.2-202.4,460.2-452S714.4,0,460.2,0Zm256.7,708.6c-7.8,7.8-18,11.7-28.3,11.7s-20.5-3.9-28.3-11.7l-200.1-200.1-200.1,200.1c-15.6,15.6-41,15.6-56.6,0-7.8-7.8-11.7-18-11.7-28.3s3.9-20.5,11.7-28.3l200.1-200.1L203.5,251.9c-15.6-15.6-15.6-41,0-56.6,7.8-7.8,18-11.7,28.3-11.7s20.5,3.9,28.3,11.7l200.1,200.1,200.1-200.1c15.6-15.6,41-15.6,56.6,0,7.8,7.8,11.7,18,11.7,28.3s-3.9,20.5-11.7,28.3l-200.1,200.1,200.1,200.1c15.6,15.6,15.6,40.9,0,56.5Z" fill="#f93e3e"/></svg>