<!-- Generator: Adobe Illustrator 27.0.0, SVG Export Plug-In . SVG Version: 6.00 Build 0)  -->
<svg version="1.1" id="Layer_1" xmlns="http://www.w3.org/2000/svg" xmlns:xlink="http://www.w3.org/1999/xlink" x="0px" y="0px"
	 viewBox="0 0 1024 1024" style="enable-background:new 0 0 1024 1024;" xml:space="preserve">
<path d="M833.53,776.96c15.62,15.62,15.62,40.95,0,56.57c-7.81,7.81-18.05,11.71-28.29,11.71c-10.23,0-20.47-3.9-28.28-11.71
	L512.01,568.58L247.05,833.53c-15.62,15.62-40.94,15.62-56.56,0h-0.01c-15.62-15.62-15.62-40.95,0-56.57l264.96-264.95
	L190.48,247.04c-15.62-15.62-15.62-40.94,0-56.56l0.01-0.01c15.62-15.62,40.94-15.62,56.56,0l264.96,264.96l264.95-264.96
	c15.62-15.62,40.95-15.62,56.57,0v0.01c15.62,15.62,15.62,40.94,0,56.56L568.57,512.01L833.53,776.96z"/>
</svg>
