<?xml version="1.0" encoding="UTF-8"?><svg id="uuid-88cb0d4f-f998-4541-8938-350a74ded875" xmlns="http://www.w3.org/2000/svg" viewBox="0 0 819.07 823.87"><path d="M700,513.97v270c0,2.1-.2,4.1-.5,6.1l-.8,3.8c-1.8,7-5.5,13.3-10.5,18.3-7.2,7.2-17.2,11.7-28.3,11.7H40c-11,0-21-4.5-28.3-11.7-7.2-7.2-11.7-17.2-11.7-28.3V163.87c0-12.2,5.4-23,14-30.4,.1-.1,.3-.2,.4-.4,.3-.3,.6-.5,.9-.7,.5-.4,1-.8,1.5-1.1,3.1-2.2,6.6-4,10.3-5.3,4-1.4,8.4-2.1,12.9-2.1H310c22.1,0,40,17.9,40,40,0,11-4.5,21-11.7,28.3-7.2,7.2-17.2,11.7-28.3,11.7H80V743.87H620v-229.9c0-22.1,17.9-40,40-40,11.1,0,21.1,4.5,28.3,11.7,7.2,7.2,11.7,17.2,11.7,28.3Z"/><path d="M819.07,53.4V400h-80V137.8L435.6,441.32h.01s-157.67,157.71-157.67,157.71c-7.8,7.8-18.1,11.7-28.3,11.7s-20.5-3.9-28.3-11.7c-15.6-15.6-15.6-40.9,0-56.6l151.68-151.68L683.77,80H419.07V0h346.6c29.5,0,53.4,23.9,53.4,53.4Z"/></svg>