
<svg version="1.1" id="图层_1" xmlns="http://www.w3.org/2000/svg" xmlns:xlink="http://www.w3.org/1999/xlink" x="0px" y="0px"
	 viewBox="0 0 1024 1024" style="enable-background:new 0 0 1024 1024;" xml:space="preserve">
<g>
	<path d="M802.5,614v270c0,2.1-0.2,4.1-0.5,6.1l-0.8,3.8c-1.8,7-5.5,13.3-10.5,18.3c-7.2,7.2-17.2,11.7-28.3,11.7H144
		c-0.5,0-1,0-1.5,0c-11,0-21-4.5-28.3-11.7c-7.2-7.2-11.7-17.2-11.7-28.3v-620c0-12.2,5.4-23,14-30.4c0.1-0.1,0.3-0.2,0.4-0.4
		c0.3-0.3,0.6-0.5,0.9-0.7c0.5-0.4,1-0.8,1.5-1.1c3.1-2.2,6.6-4,10.3-5.3c4-1.4,8.4-2.1,12.9-2.1h270c22.1,0,40,17.9,40,40
		c0,11-4.5,21-11.7,28.3c-7.2,7.2-17.2,11.7-28.3,11.7h-230v540h540V614c0-22.1,17.9-40,40-40c11.1,0,21.1,4.5,28.3,11.7
		C798,592.9,802.5,602.9,802.5,614z"/>
	<path d="M709,819.4L709,819.4L709,819.4z"/>
	<path d="M921.5,153.5v346.6h-80V237.9L538.1,541.4l0,0L380.4,699.1c-7.8,7.8-18.1,11.7-28.3,11.7c-10.2,0-20.5-3.9-28.3-11.7
		c-15.6-15.6-15.6-40.9,0-56.6l151.7-151.7l310.8-310.8H521.5v-80h346.6C897.6,100.1,921.5,124,921.5,153.5z"/>
</g>
</svg>
