
<svg version="1.1" id="layer_x5F_1" xmlns="http://www.w3.org/2000/svg" xmlns:xlink="http://www.w3.org/1999/xlink" x="0px"
	 y="0px" viewBox="0 0 1024 1024" style="enable-background:new 0 0 1024 1024;" xml:space="preserve">
<g>
	<path d="M794.7,509.5c0,10.2-3.9,20.5-11.7,28.3l-0.4,0.4l-360,360c-15.6,15.6-41,15.6-56.6,0c-7.8-7.8-11.7-18-11.7-28.3
		c0-10.2,3.9-20.5,11.7-28.3l332.1-332.1L369.2,180.6c-15.6-15.6-15.6-40.9,0-56.6c7.8-7.8,18-11.7,28.3-11.7s20.5,3.9,28.3,11.7
		l356.5,356.5c0.1,0.1,0.2,0.2,0.4,0.4l0.4,0.4C790.8,489.1,794.7,499.3,794.7,509.5z"/>
</g>
<g>
	<path d="M574.7,511.3L574.7,511.3l-0.4-0.4C574.5,511,574.6,511.2,574.7,511.3z"/>
</g>
</svg>
