
<svg version="1.1" id="图层_1" xmlns="http://www.w3.org/2000/svg" xmlns:xlink="http://www.w3.org/1999/xlink" x="0px" y="0px"
	 viewBox="0 0 1024 1024" style="enable-background:new 0 0 1024 1024;" xml:space="preserve">
<g>
	<g>
		<path d="M129.7,682.2L440.9,371c1.9-1.9,4-3.8,6-5.5c2.1-1.7,4.2-3.3,6.5-4.8c0,0,0,0,0,0c1.6-1.1,3.3-2.1,5-3.1
			c0.8-0.5,1.7-0.9,2.5-1.3c0.5-0.2,1-0.5,1.4-0.7c0.3-0.2,0.7-0.3,1-0.5c0.6-0.3,1.2-0.5,1.8-0.8c0.2-0.1,0.3-0.1,0.5-0.2
			c29.2-12.6,64.4-7,88.3,16.9l84.9,84.9l-56.6,56.6l-84.9-84.9L186.3,738.8l99,99l155.6-155.6l56.6,56.6L341.8,894.3
			c-15.6,15.6-36.1,23.4-56.6,23.4c-5.1,0-10.2-0.5-15.3-1.5c-1.3-0.2-2.5-0.5-3.8-0.8c-0.6-0.2-1.2-0.3-1.9-0.5
			c-1.3-0.3-2.5-0.7-3.7-1.1c-1.2-0.4-2.5-0.8-3.7-1.3c-1.2-0.5-2.4-0.9-3.6-1.5c-1.2-0.5-2.4-1.1-3.5-1.6c-0.6-0.3-1.2-0.6-1.7-0.9
			c-1.2-0.6-2.3-1.3-3.5-1.9c-0.6-0.3-1.1-0.7-1.7-1c-1.1-0.7-2.2-1.4-3.3-2.2c-3.8-2.7-7.5-5.7-10.9-9.1l-99-99
			c-15.6-15.6-23.4-36.1-23.4-56.6C106.2,718.3,114.1,697.8,129.7,682.2z"/>
	</g>
	<g>
		<path d="M894.3,341.8L583.1,653c-1.9,1.9-4,3.8-6,5.5c-2.1,1.7-4.2,3.3-6.5,4.8c0,0,0,0,0,0c-1.6,1.1-3.3,2.1-5,3.1
			c-0.8,0.5-1.7,0.9-2.5,1.3c-0.5,0.2-1,0.5-1.4,0.7c-0.3,0.2-0.7,0.3-1,0.5c-0.6,0.3-1.2,0.5-1.8,0.8c-0.2,0.1-0.3,0.1-0.5,0.2
			c-29.2,12.6-64.4,7-88.3-16.9l-84.9-84.9l56.6-56.6l84.9,84.9l311.2-311.2l-99-99L583.2,341.8l-56.6-56.6l155.6-155.6
			c15.6-15.6,36.1-23.4,56.6-23.4c5.1,0,10.2,0.5,15.3,1.5c1.3,0.2,2.5,0.5,3.8,0.8c0.6,0.2,1.2,0.3,1.9,0.5
			c1.3,0.3,2.5,0.7,3.7,1.1c1.2,0.4,2.5,0.8,3.7,1.3c1.2,0.5,2.4,0.9,3.6,1.5c1.2,0.5,2.4,1.1,3.5,1.6c0.6,0.3,1.2,0.6,1.7,0.9
			c1.2,0.6,2.3,1.3,3.5,1.9c0.6,0.3,1.1,0.7,1.7,1c1.1,0.7,2.2,1.4,3.3,2.2c3.8,2.7,7.5,5.7,10.9,9.1l99,99
			c15.6,15.6,23.4,36.1,23.4,56.6C917.8,305.7,909.9,326.2,894.3,341.8z"/>
	</g>
</g>
</svg>
