<?xml version="1.0" encoding="UTF-8"?><svg id="uuid-f24f98af-7c48-4db0-8414-85f3e6cfbb51" xmlns="http://www.w3.org/2000/svg" viewBox="0 0 853.5 897.5"><path d="M447.5,750c-217.54,0-382.52-224.96-275-454.94,27.15-58.07,74.57-104.25,132.95-130.72,175.27-79.48,346.84-1.36,417.31,136.91,11.69,22.93,35.05,37.56,60.79,37.56h1.93c51.36,0,84.01-54.68,59.94-100.06C769.84,96.26,619.72-.64,447.02,0,195.3,.95-5.46,207.23,.11,458.88c5.39,243.16,204.19,438.62,448.64,438.62,149.63,0,282.14-73.22,363.67-185.79,23.13-31.94,14.55-76.74-18.88-97.66l-7.68-4.8c-30.04-18.8-69.67-11.75-90.88,16.64-56.3,75.35-146.2,124.12-247.49,124.12Z"/></svg>