<?xml version="1.0" encoding="UTF-8"?><svg id="uuid-b21a87e3-49cc-462e-a96d-905b508bbeb9" xmlns="http://www.w3.org/2000/svg" viewBox="0 0 778.58 777.97"><path d="M766.87,709.68l-142.44-142.44c47.31-59.69,75.57-135.16,75.57-217.24C700,156.7,543.3,0,350,0S0,156.7,0,350s156.7,350,350,350c82.4,0,158.14-28.47,217.94-76.11l142.36,142.36c7.82,7.81,18.05,11.72,28.29,11.72s20.47-3.91,28.28-11.72c15.62-15.62,15.62-40.95,0-56.57ZM70,350c0-154.64,125.36-280,280-280s280,125.36,280,280-125.36,280-280,280S70,504.64,70,350Z"/></svg>