<?xml version="1.0" encoding="UTF-8"?><svg id="uuid-1e91a8e1-395d-4459-9160-f5f2e1e9b385" xmlns="http://www.w3.org/2000/svg" viewBox="0 0 898.6 898.6"><path d="M449.3,0C201.1,0,0,201.1,0,449.3s201.1,449.3,449.3,449.3,449.3-201.1,449.3-449.3S697.5,0,449.3,0Zm289.9,293.7l-367.7,367.7c-15.6,15.6-41,15.6-56.6,0l-1-1-152.5-152.6c-15.6-15.6-15.6-41,0-56.6,7.8-7.8,18.1-11.7,28.3-11.7s20.5,3.9,28.3,11.7l125.3,125.4L682.7,237.2c15.6-15.6,40.9-15.6,56.6,0,7.8,7.8,11.7,18,11.7,28.3-.1,10.2-4,20.4-11.8,28.2Z" fill="#22c134"/></svg>