<?xml version="1.0" encoding="UTF-8"?><svg id="uuid-ae6bb44a-7fde-47f6-bf51-990486cac0b0" xmlns="http://www.w3.org/2000/svg" viewBox="0 0 827.31 824.81"><g><path d="M334.56,589.24l56.57,56.57-155.56,155.57h-.01c-15.62,15.62-36.09,23.43-56.56,23.43s-40.95-7.81-56.57-23.43l-99-99c-15.62-15.62-23.43-36.09-23.43-56.57s7.81-40.95,23.43-56.57L391.13,221.55l56.57,56.57L80,645.81l99,99,155.56-155.57Z"/><path d="M827.31,179c0,20.47-7.81,40.94-23.43,56.57l-367.7,367.69-56.57-56.57L747.31,179l-98.99-99-155.57,155.57-56.57-56.57L591.75,23.43c15.62-15.62,36.09-23.43,56.56-23.43s40.95,7.81,56.57,23.43l99,99c15.62,15.62,23.43,36.09,23.43,56.57Z"/></g><rect x="373.66" y="12.41" width="80" height="800" transform="translate(77.9 -65.56) rotate(10)"/></svg>